<?xml version="1.0" encoding="utf-8"?>
<!-- Generator: Adobe Illustrator 25.0.1, SVG Export Plug-In . SVG Version: 6.00 Build 0)  -->
<svg version="1.1" id="Capa_1" xmlns="http://www.w3.org/2000/svg" xmlns:xlink="http://www.w3.org/1999/xlink" x="0px" y="0px"
	 viewBox="0 0 143.1 218.4" style="enable-background:new 0 0 143.1 218.4;" xml:space="preserve">
<style type="text/css">
	.st0{fill:#511014;}
	.st1{fill:#C51A18;}
	.st2{fill:#FFFFFF;}
</style>
<polygon class="st0" points="143.6,34.68 126.5,0.08 126.5,34.68 "/>
<path class="st1" d="M0.7,155.5c0,34.8,28.2,62.9,62.9,62.9c34.8,0,62.9-28.2,62.9-62.9V0H0.7V155.5z"/>
<path class="st2" d="M7.7,154.8c0,31,25.1,56.1,56.1,56.1s56.1-25.1,56.1-56.1S94.8,98.7,63.8,98.7S7.7,123.8,7.7,154.8"/>
<path class="st1" d="M99,133.9l-34.4-12.7c-0.3-0.1-0.7-0.1-1,0l-34.4,12.7l0,0c-0.1,0-0.2,0.1-0.3,0.2c-0.4,0.3-0.6,0.7-0.6,1.2
	v40.9c0,0.6,0.4,1.1,0.9,1.3l34.4,12.7c0.2,0.1,0.3,0.1,0.5,0.1c0.2,0,0.3,0,0.5-0.1l0,0L99,177.5c0.6-0.2,0.9-0.7,0.9-1.3v-40.9
	C99.9,134.6,99.5,134.1,99,133.9 M62.6,186.8L31,175.2v-37.8l6.4,2.4V157c0,0.6,0.4,1.1,0.9,1.3l15.4,5.7c0.2,0.1,0.3,0.1,0.5,0.1
	c0.3,0,0.6-0.1,0.8-0.3c0.4-0.3,0.6-0.7,0.6-1.2v-16.3l6.9,2.5v38H62.6z M52.9,145.4v15.3L40.3,156v-15.3L52.9,145.4z M43,138.7
	l11.3-4.2l11.3,4.2l-11.3,4.2L43,138.7z M64,146.4l-5.6-2.1l11.8-4.4c0.6-0.2,0.9-0.7,0.9-1.3s-0.4-1.1-0.9-1.3l-15.4-5.7
	c-0.3-0.1-0.7-0.1-1,0l-14.9,5.5l-5.1-1.9L64.1,124l30.3,11.2L64,146.4z M97,175.1l-31.6,11.6v-37.8L97,137.2V175.1z"/>
</svg>
