<?xml version="1.0" encoding="utf-8"?>
<!-- Generator: Adobe Illustrator 25.0.1, SVG Export Plug-In . SVG Version: 6.00 Build 0)  -->
<svg version="1.1" id="Capa_1" xmlns="http://www.w3.org/2000/svg" xmlns:xlink="http://www.w3.org/1999/xlink" x="0px" y="0px"
	 viewBox="0 0 143.1 218.4" style="enable-background:new 0 0 143.1 218.4;" xml:space="preserve">
<style type="text/css">
	.st0{fill:#C51A18;}
	.st1{fill:#FFFFFF;}
	.st2{fill:#511014;}
</style>
<path class="st0" d="M0.5,155.58c0,34.8,28.2,62.9,62.9,62.9c34.8,0,62.9-28.2,62.9-62.9V0.08H0.5V155.58z"/>
<path class="st1" d="M7.5,154.88c0,31,25.1,56.1,56.1,56.1s56.1-25.1,56.1-56.1s-25.1-56.1-56.1-56.1
	C32.6,98.78,7.5,123.88,7.5,154.88"/>
<polygon class="st2" points="143.6,34.68 126.5,0.08 126.5,34.68 "/>
<path class="st0" d="M97.4,166.48c0.1-0.3,0.1-0.6,0-0.9l-5.6-18v-16.6c0-3.9-3.1-7-7-7H42.7c-3.9,0-7,3.2-7,7v16.6l-5.6,18
	c-0.1,0.3-0.1,0.6,0,0.9c-0.1,0.3-0.1,0.6-0.1,0.9v11.2v5.6c0,0.8,0.6,1.4,1.4,1.4H37c0.8,0,1.4-0.6,1.4-1.4v-4.2H89v4.2
	c0,0.8,0.6,1.4,1.4,1.4H96c0.8,0,1.4-0.6,1.4-1.4v-5.6v-11.2C97.5,167.08,97.4,166.78,97.4,166.48 M38.5,130.88
	c0-2.3,1.9-4.2,4.2-4.2h42.1c2.3,0,4.2,1.9,4.2,4.2v15.4h-3.8l-1.3-5.2c-0.5-1.9-2.2-3.2-4.1-3.2h-9c-2.3,0-4.2,1.9-4.2,4.2v4.2H61
	v-4.2c0-2.3-1.9-4.2-4.2-4.2h-9c-1.9,0-3.6,1.3-4.1,3.2l-1.3,5.2h-3.8v-15.4H38.5z M82.4,148.58c-0.3,0.3-0.7,0.5-1.1,0.5H70.8
	c-0.8,0-1.4-0.6-1.4-1.4v-5.6c0-0.8,0.6-1.4,1.4-1.4h9c0.6,0,1.2,0.4,1.4,1.1l1.4,5.6C82.7,147.78,82.6,148.28,82.4,148.58
	 M58.2,142.08v5.6l0,0l0,0c0,0.8-0.6,1.4-1.4,1.4H46.3c-0.4,0-0.8-0.2-1.1-0.5s-0.4-0.8-0.3-1.2l1.4-5.6c0.2-0.6,0.7-1.1,1.4-1.1h9
	C57.5,140.68,58.2,141.28,58.2,142.08 M38.1,149.08h4.2c0.2,0.4,0.3,0.8,0.6,1.2c0.8,1,2,1.6,3.3,1.6h10.4c1.8,0,3.4-1.2,4-2.8h6.1
	c0.6,1.6,2.1,2.8,4,2.8h10.4c1.3,0,2.5-0.6,3.3-1.6c0.3-0.4,0.5-0.8,0.6-1.2h4.2l4.3,14.1c-0.2,0-0.3-0.1-0.5-0.1H34
	c-0.2,0-0.3,0-0.5,0.1L38.1,149.08z M35.7,182.78h-2.8v-2.8h2.8V182.78z M94.7,182.78h-2.8v-2.8h2.8V182.78z M94.7,177.18H32.9v-9.8
	c0-0.8,0.6-1.4,1.4-1.4h59c0.8,0,1.4,0.6,1.4,1.4V177.18z"/>
</svg>
