<?xml version="1.0" encoding="utf-8"?>
<!-- Generator: Adobe Illustrator 25.0.1, SVG Export Plug-In . SVG Version: 6.00 Build 0)  -->
<svg version="1.1" id="Capa_1" xmlns="http://www.w3.org/2000/svg" xmlns:xlink="http://www.w3.org/1999/xlink" x="0px" y="0px"
	 viewBox="0 0 143.1 218.4" style="enable-background:new 0 0 143.1 218.4;" xml:space="preserve">
<style type="text/css">
	.st0{fill:#511014;}
	.st1{fill:#C51A18;}
	.st2{fill:#FFFFFF;}
	.st3{fill:none;stroke:#FFFFFF;stroke-miterlimit:10;}
</style>
<polygon class="st0" points="143.6,34.68 126.5,0.08 126.5,34.68 "/>
<path class="st1" d="M1,155.5c0,34.8,28.2,62.9,62.9,62.9c34.8,0,62.9-28.2,62.9-62.9V0H1V155.5z"/>
<path class="st2" d="M8.2,154.8c0,31,25.1,56.1,56.1,56.1s56.1-25.1,56.1-56.1S95.3,98.7,64.3,98.7C33.3,98.7,8.2,123.8,8.2,154.8"
	/>
<path class="st1" d="M51,159.5c-3.3-0.4-6.8,0.6-9.3,3.1c-1,1-1,2.6,0,3.6s2.6,1,3.6,0c2.3-2.3,6.1-2.3,8.5,0
	c4.3,4.3,11.4,4.3,15.7,0c2.3-2.3,6.1-2.3,8.5,0c4.3,4.3,11.4,4.3,15.7,0c2.3-2.3,6.1-2.3,8.5,0c1,1,2.6,1,3.6,0s1-2.6,0-3.6
	c-4.3-4.3-11.4-4.3-15.7,0c-2.3,2.3-6.1,2.3-8.5,0c-1.5-1.5-3.4-2.5-5.3-3c0-32.4,0-30.6,0-31.3c-0.4-6.7-5.9-11.9-12.6-11.9
	c-1.4,0-2.6,1.1-2.6,2.6s1.1,2.6,2.6,2.6c4,0,7.3,3.1,7.5,7.1c0,0.4,0,0.4,0,2.9h-15c0-2.4,0-2.6,0-3.2c-0.4-6.7-5.9-11.9-12.6-11.9
	c-1.4,0-2.6,1.1-2.6,2.6s1.1,2.6,2.6,2.6c4,0,7.3,3.1,7.5,7.1C51,129.2,51,127.3,51,159.5 M65.8,162.7c-2.3,2.3-6.1,2.3-8.5,0
	c-0.4-0.4-0.8-0.8-1.3-1.1v-9.7h15v7.8C69.2,160.2,67.3,161.2,65.8,162.7 M71.1,146.8h-15v-10h15V146.8z"/>
<path class="st3" d="M51,159.5c-3.3-0.4-6.8,0.6-9.3,3.1c-1,1-1,2.6,0,3.6s2.6,1,3.6,0c2.3-2.3,6.1-2.3,8.5,0
	c4.3,4.3,11.4,4.3,15.7,0c2.3-2.3,6.1-2.3,8.5,0c4.3,4.3,11.4,4.3,15.7,0c2.3-2.3,6.1-2.3,8.5,0c1,1,2.6,1,3.6,0s1-2.6,0-3.6
	c-4.3-4.3-11.4-4.3-15.7,0c-2.3,2.3-6.1,2.3-8.5,0c-1.5-1.5-3.4-2.5-5.3-3c0-32.4,0-30.6,0-31.3c-0.4-6.7-5.9-11.9-12.6-11.9
	c-1.4,0-2.6,1.1-2.6,2.6s1.1,2.6,2.6,2.6c4,0,7.3,3.1,7.5,7.1c0,0.4,0,0.4,0,2.9h-15c0-2.4,0-2.6,0-3.2c-0.4-6.7-5.9-11.9-12.6-11.9
	c-1.4,0-2.6,1.1-2.6,2.6s1.1,2.6,2.6,2.6c4,0,7.3,3.1,7.5,7.1C51,129.2,51,127.3,51,159.5z M65.8,162.7c-2.3,2.3-6.1,2.3-8.5,0
	c-0.4-0.4-0.8-0.8-1.3-1.1v-9.7h15v7.8C69.2,160.2,67.3,161.2,65.8,162.7z M71.1,146.8h-15v-10h15V146.8z"/>
<path class="st1" d="M90,175.3c-2.3,2.3-6.1,2.3-8.5,0c-4.3-4.3-11.4-4.3-15.7,0c-2.3,2.3-6.1,2.3-8.5,0c-4.3-4.3-11.4-4.3-15.7,0
	c-1,1-1,2.6,0,3.6s2.6,1,3.6,0c2.3-2.3,6.1-2.3,8.5,0c4.3,4.3,11.4,4.3,15.7,0c2.3-2.3,6.1-2.3,8.5,0c4.3,4.3,11.4,4.3,15.7,0
	c2.3-2.3,6.1-2.3,8.5,0c1,1,2.6,1,3.6,0s1-2.6,0-3.6C101.4,170.9,94.4,170.9,90,175.3"/>
<path class="st3" d="M90,175.3c-2.3,2.3-6.1,2.3-8.5,0c-4.3-4.3-11.4-4.3-15.7,0c-2.3,2.3-6.1,2.3-8.5,0c-4.3-4.3-11.4-4.3-15.7,0
	c-1,1-1,2.6,0,3.6s2.6,1,3.6,0c2.3-2.3,6.1-2.3,8.5,0c4.3,4.3,11.4,4.3,15.7,0c2.3-2.3,6.1-2.3,8.5,0c4.3,4.3,11.4,4.3,15.7,0
	c2.3-2.3,6.1-2.3,8.5,0c1,1,2.6,1,3.6,0s1-2.6,0-3.6C101.4,170.9,94.4,170.9,90,175.3z"/>
</svg>
