<?xml version="1.0" encoding="utf-8"?>
<!-- Generator: Adobe Illustrator 25.0.1, SVG Export Plug-In . SVG Version: 6.00 Build 0)  -->
<svg version="1.1" id="Capa_1" xmlns="http://www.w3.org/2000/svg" xmlns:xlink="http://www.w3.org/1999/xlink" x="0px" y="0px"
	 viewBox="0 0 143.1 218.4" style="enable-background:new 0 0 143.1 218.4;" xml:space="preserve">
<style type="text/css">
	.st0{fill:#511014;}
	.st1{fill:#C51A18;}
	.st2{fill:#FFFFFF;}
</style>
<polygon class="st0" points="143.6,34.68 126.5,0.08 126.5,34.68 "/>
<path class="st1" d="M0.6,155.5c0,34.8,28.2,62.9,62.9,62.9c34.8,0,62.9-28.2,62.9-62.9V0H0.6V155.5z"/>
<path class="st2" d="M7.4,155c0,31,25.1,56.1,56.1,56.1s56.1-25.1,56.1-56.1S94.5,98.9,63.5,98.9C32.5,99,7.4,124.1,7.4,155"/>
<path class="st1" d="M58,121.6c3.7,0,7,2.1,8.6,5.1c1.5-0.9,3.2-1.4,5.1-1.4c4.3,0,7.9,2.7,9.3,6.5c5,0.5,8.9,4.7,8.9,9.8
	c0,1.2-0.2,2.4-0.7,3.5c1.5,1.7,2.5,4,2.5,6.5c0,4.3-2.7,7.9-6.5,9.3c-0.5,5-4.7,8.9-9.8,8.9c-2.1,0-4-0.6-5.6-1.7l-4.1,4.3
	c0,0-0.8,4.5-0.8,6.9c0.1,2.4,1.8,9.8,1.8,9.8H54.8c0.8-3.3,1.9-7.3,2.1-11c0.1-1.9-0.4-9.4-0.4-9.4c-0.1,0-0.2,0-0.4,0
	c-1.4,0-3.8-1.5-5.5-2.8c-1.4,0.7-2.9,1.1-4.5,1.1c-5.5,0-9.9-4.4-9.9-9.9c0-0.2,0-0.4,0-0.5c-2.2-1.8-3.7-4.6-3.7-7.7
	c0-3.5,1.8-6.6,4.6-8.4c0-0.3,0-0.5,0-0.8c0-5.5,4.4-9.9,9.9-9.9c0.4,0,0.8,0,1.2,0.1C49,125.2,53.1,121.6,58,121.6 M64.1,168.8
	c0.1,0,0.2,0,0.4-0.1c1.1-0.3,2.5-1.3,3.6-2.3c-1.3-1.5-2.2-3.3-2.5-5.3c-0.4,0.3-0.9,0.5-1.4,0.6C63.6,164.4,62.3,168.8,64.1,168.8
	 M60.1,166.8C60.1,166.8,60.2,166.8,60.1,166.8c1-0.2,1.6-2.4,1.9-4.4c-0.4,0.1-0.8,0.1-1.2,0.1c-1.6,0-3.1-0.4-4.5-1.1
	C57.4,163.8,59.1,166.8,60.1,166.8 M56.5,165.8c0.3,0,0.4,0,0.4,0l-1.9-4.1c-0.5,1-1.2,1.9-2,2.6C54.8,165.6,55.9,165.8,56.5,165.8
	 M58,118.6c-5.5,0-10.2,3.4-12,8.3c-6.4,0.5-11.5,5.7-11.8,12.2c-2.9,2.4-4.6,6-4.6,9.9c0,3.4,1.3,6.6,3.7,9
	c0.4,6.8,6,12.1,12.9,12.1c1.4,0,2.9-0.2,4.2-0.7c1.4,0.9,2.5,1.5,3.4,1.8c0.2,2.7,0.3,5.8,0.2,6.8c-0.2,2.8-0.9,6.1-1.6,8.9
	c-0.1,0.5-0.2,1-0.4,1.5l-0.9,3.7h3.8h11.9h3.8l-0.9-3.7c-0.7-2.7-1.7-7.6-1.8-9.1c0-1.4,0.3-3.9,0.6-5.4l1.9-2c1.6,0.7,3.3,1,5,1
	c6,0,11.1-4.1,12.5-9.8c4.1-2.2,6.8-6.6,6.8-11.4c0-2.6-0.8-5-2.2-7.1c0.2-1,0.3-1.9,0.3-2.9c0-6-4.1-11.1-9.8-12.5
	c-2.2-4.1-6.6-6.8-11.3-6.8c-1.4,0-2.8,0.2-4.1,0.7C65.2,120.2,61.7,118.6,58,118.6"/>
</svg>
